<svg width="154.089844" height="22.365234" viewBox="0 0 154.09 22.3652" fill="none" xmlns="http://www.w3.org/2000/svg" xmlns:xlink="http://www.w3.org/1999/xlink">
	<desc>
			Created with Pixso.
	</desc>
	<defs/>
	<path d="M6.30469 17.4551L0 17.4551L0 0L6.09961 0C9.75 0 11.4551 2.08008 11.4551 4.63477C11.4551 6.88477 10.125 7.875 8.625 8.28516L8.625 8.45508C10.2246 8.55469 12.1348 10.0547 12.1348 12.8203C12.1348 15.4453 10.4297 17.4551 6.30469 17.4551ZM124.497 0L126.507 0L126.507 17.4551L124.497 17.4551L124.497 0ZM44.7614 4.36523L47.5563 4.36523L47.5563 6.07031L44.7614 6.07031L44.7614 13.7051C44.7614 15.4102 45.611 15.6797 46.4957 15.6797C46.9411 15.6797 47.2164 15.6152 47.3864 15.5801L47.7965 17.3848C47.5211 17.4902 47.0465 17.625 46.2965 17.625C44.5914 17.625 42.7457 16.5352 42.7457 14.25L42.7457 6.07031L40.7711 6.07031L40.7711 4.36523L42.7457 4.36523L42.7457 1.23047L44.7614 1.23047L44.7614 4.36523ZM2.10938 1.875L2.10938 7.66992L6.03516 7.66992C7.93945 7.66992 9.43945 6.48047 9.43945 4.63477C9.43945 3.10547 8.41992 1.875 6.09961 1.875L2.10938 1.875ZM26.0433 14.4199C25.4281 16.4004 23.4886 17.7305 20.8285 17.7305C17.0433 17.7305 14.723 15.0352 14.723 11.0098C14.723 6.99023 17.0785 4.19531 20.6234 4.19531C23.348 4.19531 26.2484 5.86523 26.2484 10.7402L26.2484 11.5898L16.7445 11.5898C16.8382 14.3965 18.4672 15.9199 20.8285 15.9199C22.4047 15.9199 23.5882 15.2402 24.098 13.875L26.0433 14.4199ZM33.9503 4.19531C36.546 4.19531 37.9581 5.4375 38.5909 7.29492L36.7804 7.80469C36.4347 6.90234 35.7081 5.92969 33.9503 5.92969C32.3507 5.92969 31.1554 6.75 31.1554 7.875C31.1554 8.88281 31.8585 9.39844 33.4054 9.78516L35.3507 10.2598C37.6886 10.834 38.8253 11.9824 38.8253 13.8047C38.8253 16.0664 36.7569 17.7305 33.7159 17.7305C31.0382 17.7305 29.2042 16.541 28.7354 14.3203L30.6456 13.8398C31.003 15.2461 32.0343 15.9551 33.6808 15.9551C35.5558 15.9551 36.7511 15.0352 36.7511 13.9102C36.7511 13.0078 36.1241 12.375 34.8058 12.0703L32.6261 11.5547C30.2179 10.9922 29.1456 9.78516 29.1456 7.98047C29.1456 5.75977 31.1905 4.19531 33.9503 4.19531ZM111.882 22.3652L109.872 22.3652L109.872 4.36523L111.818 4.36523L111.818 6.44531L112.058 6.44531C112.497 5.75977 113.282 4.19531 115.837 4.19531C119.148 4.19531 121.433 6.82031 121.433 10.9453C121.433 15.1055 119.148 17.7305 115.872 17.7305C113.353 17.7305 112.497 16.1602 112.058 15.4453L111.882 15.4453L111.882 22.3652ZM137.931 15.6797C137.521 16.5352 136.325 17.7598 134.046 17.7598C131.556 17.7598 129.575 16.2949 129.575 13.7402C129.575 10.7402 132.23 10.2012 134.655 9.88477C137.046 9.58008 138.03 9.66797 138.03 8.69531L138.03 8.625C138.03 6.94922 137.122 5.96484 135.271 5.96484C133.355 5.96484 132.306 6.99023 131.86 7.94531L129.95 7.25977C130.976 4.875 133.226 4.19531 135.2 4.19531C136.876 4.19531 140.046 4.66992 140.046 8.83008L140.046 17.4551L138.03 17.4551L138.03 15.6797L137.931 15.6797ZM149.08 6C147.152 6 145.734 7.29492 145.734 9.58008L145.734 17.4551L143.725 17.4551L143.725 4.36523L145.67 4.36523L145.67 6.41016L145.84 6.41016C146.455 5.08008 147.68 4.19531 149.66 4.19531C152.309 4.19531 154.09 5.79492 154.09 9.13477L154.09 17.4551L152.08 17.4551L152.08 9.27539C152.08 7.21875 150.943 6 149.08 6ZM20.6234 6C18.3207 6 16.8793 7.81641 16.7445 9.85547L24.2035 9.85547C24.2035 7.63477 22.8031 6 20.6234 6ZM115.603 6C113.148 6 111.853 7.98047 111.853 10.9102C111.853 13.875 113.183 15.9199 115.603 15.9199C118.122 15.9199 119.417 13.7051 119.417 10.9102C119.417 8.15039 118.157 6 115.603 6ZM2.10938 9.50977L2.10938 15.5801L6.30469 15.5801C9.06445 15.5801 10.125 14.3555 10.125 12.8203C10.125 11.0449 8.68945 9.50977 6.41016 9.50977L2.10938 9.50977ZM131.591 13.8398C131.591 15.2402 132.751 15.9551 134.351 15.9551C136.735 15.9551 138.03 14.3555 138.03 12.7148L138.03 10.875C137.691 11.2852 135.405 11.5254 134.556 11.625C132.985 11.8301 131.591 12.3047 131.591 13.8398Z" fill="#333333" fill-opacity="1.000000" fill-rule="evenodd"/>
	<path d="M60.2386 4.36523L63.0336 4.36523L63.0336 6.07031L60.2386 6.07031L60.2386 13.7051C60.2386 15.4102 61.0882 15.6797 61.973 15.6797C62.4183 15.6797 62.6937 15.6152 62.8636 15.5801L63.2738 17.3848C62.9984 17.4902 62.5238 17.625 61.7738 17.625C60.0687 17.625 58.223 16.5352 58.223 14.25L58.223 6.07031L56.2484 6.07031L56.2484 4.36523L58.223 4.36523L58.223 1.23047L60.2386 1.23047L60.2386 4.36523ZM96.2003 17.4551L94.1905 17.4551L94.1905 4.36523L96.1358 4.36523L96.1358 6.33984L96.2706 6.33984C96.7511 5.04492 98.1104 4.16016 99.6808 4.16016C99.9796 4.16016 100.507 4.17773 100.735 4.19531L100.735 6.24023C100.601 6.20508 100.044 6.10547 99.5108 6.10547C97.6007 6.10547 96.2003 7.40039 96.2003 9.16992L96.2003 17.4551ZM77.1792 10.9805C77.1792 15.0352 74.7944 17.7305 71.2495 17.7305C67.7045 17.7305 65.3139 15.0352 65.3139 10.9805C65.3139 6.88477 67.7045 4.19531 71.2495 4.19531C74.7944 4.19531 77.1792 6.88477 77.1792 10.9805ZM85.1223 15.6797C86.6223 15.6797 88.4973 14.5547 88.4973 12.1055L88.4973 4.36523L90.5071 4.36523L90.5071 17.4551L88.4973 17.4551L88.4973 15.2402L88.3626 15.2402C87.7473 16.5703 86.4524 17.625 84.4778 17.625C82.0227 17.625 80.2473 16.0254 80.2473 12.6797L80.2473 4.36523L82.2571 4.36523L82.2571 12.5449C82.2571 14.4551 83.4524 15.6797 85.1223 15.6797ZM67.3295 10.9805C67.3295 13.6055 68.5542 15.9199 71.2495 15.9199C73.9389 15.9199 75.1694 13.6055 75.1694 10.9805C75.1694 8.35547 73.9389 6 71.2495 6C68.5542 6 67.3295 8.35547 67.3295 10.9805Z" fill="#EC1F46" fill-opacity="1.000000" fill-rule="evenodd"/>
</svg>
