<svg width="16.000000" height="16.000000" viewBox="0 0 16 16" fill="none" xmlns="http://www.w3.org/2000/svg" xmlns:xlink="http://www.w3.org/1999/xlink">
	<desc>
			Created with Pixso.
	</desc>
	<defs>
		<clipPath id="clip11_238">
			<rect width="16.000000" height="16.000000" fill="white" fill-opacity="0"/>
		</clipPath>
	</defs>
	<rect width="16.000000" height="16.000000" fill="#FFFFFF" fill-opacity="0"/>
	<g clip-path="url(#clip11_238)">
		<path d="M7.3335 2.66669C4.7561 2.66669 2.66675 4.75601 2.66675 7.33334C2.66675 9.91068 4.7561 12 7.3335 12C9.91089 12 12.0002 9.91068 12.0002 7.33334C12.0002 4.75601 9.91089 2.66669 7.3335 2.66669ZM1.3335 7.33334C1.3335 4.01962 4.01978 1.33334 7.3335 1.33334C10.6472 1.33334 13.3335 4.01962 13.3335 7.33334C13.3335 10.6471 10.6472 13.3333 7.3335 13.3333C4.01978 13.3333 1.3335 10.6471 1.3335 7.33334Z" fill="#FFFFFF" fill-opacity="1.000000" fill-rule="evenodd"/>
		<path d="M10.6287 10.6286C10.8889 10.3683 11.311 10.3683 11.5715 10.6286L14.4714 13.5286C14.7317 13.789 14.7317 14.2111 14.4714 14.4714C14.2112 14.7318 13.7891 14.7318 13.5286 14.4714L10.6287 11.5714C10.3682 11.3111 10.3682 10.8889 10.6287 10.6286Z" fill="#FFFFFF" fill-opacity="1.000000" fill-rule="evenodd"/>
	</g>
</svg>
